<svg width="8" height="10" viewBox="0 0 8 10" fill="none" xmlns="http://www.w3.org/2000/svg">
<path d="M7.33317 3.125C7.33317 2.2962 6.98198 1.50134 6.35686 0.915291C5.73174 0.32924 4.88389 0 3.99984 0C3.11578 0 2.26794 0.32924 1.64281 0.915291C1.01769 1.50134 0.666504 2.2962 0.666504 3.125C0.666504 3.29076 0.736742 3.44973 0.861766 3.56694C0.98679 3.68415 1.15636 3.75 1.33317 3.75C1.50998 3.75 1.67955 3.68415 1.80457 3.56694C1.9296 3.44973 1.99984 3.29076 1.99984 3.125C1.99984 2.75416 2.11714 2.39165 2.3369 2.08331C2.55666 1.77496 2.86902 1.53464 3.23447 1.39273C3.59992 1.25081 4.00206 1.21368 4.39002 1.28603C4.77798 1.35838 5.13435 1.53695 5.41405 1.79917C5.69376 2.0614 5.88424 2.39549 5.96141 2.75921C6.03858 3.12292 5.99897 3.49992 5.8476 3.84253C5.69622 4.18514 5.43988 4.47798 5.11098 4.68401C4.78208 4.89003 4.3954 5 3.99984 5C3.82303 5 3.65346 5.06585 3.52843 5.18306C3.40341 5.30027 3.33317 5.45924 3.33317 5.625V6.875C3.33317 7.04076 3.40341 7.19973 3.52843 7.31694C3.65346 7.43415 3.82303 7.5 3.99984 7.5C4.17665 7.5 4.34622 7.43415 4.47124 7.31694C4.59627 7.19973 4.6665 7.04076 4.6665 6.875V6.1875C5.41941 6.04342 6.0961 5.65989 6.58204 5.10181C7.06798 4.54374 7.33333 3.84541 7.33317 3.125Z" fill="#4643D3"/>
<path d="M4.00016 10C4.36835 10 4.66683 9.72018 4.66683 9.375C4.66683 9.02982 4.36835 8.75 4.00016 8.75C3.63197 8.75 3.3335 9.02982 3.3335 9.375C3.3335 9.72018 3.63197 10 4.00016 10Z" fill="#4643D3"/>
</svg>
