<svg width="18" height="14" viewBox="0 0 18 14" fill="none" xmlns="http://www.w3.org/2000/svg">
<path d="M1 3.55851L7.60392 7.68059C7.87901 7.85243 8.20229 7.94414 8.53299 7.94414C8.86368 7.94414 9.18697 7.85243 9.46206 7.68059L16.066 3.55851M2.674 12.1788H14.392C14.836 12.1788 15.2617 12.0137 15.5757 11.7198C15.8896 11.4258 16.066 11.0272 16.066 10.6115V2.77485C16.066 2.35917 15.8896 1.96051 15.5757 1.66658C15.2617 1.37265 14.836 1.20752 14.392 1.20752H2.674C2.23003 1.20752 1.80424 1.37265 1.4903 1.66658C1.17637 1.96051 1 2.35917 1 2.77485V10.6115C1 11.0272 1.17637 11.4258 1.4903 11.7198C1.80424 12.0137 2.23003 12.1788 2.674 12.1788Z" stroke="white" stroke-width="2" stroke-linecap="round" stroke-linejoin="round"/>
</svg>
