<svg width="13" height="13" viewBox="0 0 13 13" fill="none" xmlns="http://www.w3.org/2000/svg">
<path d="M11.1558 0.240723H2.03464C1.00483 0.240723 0.220215 1.02534 0.220215 2.05515V11.1763C0.220215 12.2061 1.00483 12.9907 2.03464 12.9907H11.1558C12.1856 12.9907 12.9702 12.2061 12.9702 11.1763V2.05515C12.9702 1.02534 12.1856 0.240723 11.1558 0.240723ZM6.59522 10.4407C8.70387 10.4407 10.4202 8.77342 10.4202 6.76284C10.4202 6.41957 10.3712 6.02726 10.2731 5.73303H11.3519V10.9311C11.3519 11.1763 11.1558 11.4215 10.8616 11.4215H2.32887C2.08368 11.4215 1.83849 11.2253 1.83849 10.9311V5.68399H2.96637C2.8683 6.02726 2.81926 6.37053 2.81926 6.7138C2.77022 8.77342 4.48656 10.4407 6.59522 10.4407ZM6.59522 8.96957C5.22214 8.96957 4.14329 7.89072 4.14329 6.56669C4.14329 5.24265 5.22214 4.1638 6.59522 4.1638C7.96829 4.1638 9.04714 5.24265 9.04714 6.56669C9.04714 7.93976 7.96829 8.96957 6.59522 8.96957ZM11.3029 3.72245C11.3029 4.01668 11.0577 4.26188 10.7635 4.26188H9.39041C9.09618 4.26188 8.85099 4.01668 8.85099 3.72245V2.39842C8.85099 2.10418 9.09618 1.85899 9.39041 1.85899H10.7635C11.0577 1.85899 11.3029 2.10418 11.3029 2.39842V3.72245Z" fill="white"/>
</svg>
