<svg width="12" height="16" viewBox="0 0 12 16" fill="none" xmlns="http://www.w3.org/2000/svg">
<path d="M10.0096 0.211914H1.63956C1.32244 0.211914 1.01831 0.329863 0.794065 0.539814C0.569825 0.749765 0.443848 1.03452 0.443848 1.33143V14.7657C0.443848 15.0626 0.569825 15.3473 0.794065 15.5573C1.01831 15.7673 1.32244 15.8852 1.63956 15.8852H10.0096C10.3267 15.8852 10.6308 15.7673 10.8551 15.5573C11.0793 15.3473 11.2053 15.0626 11.2053 14.7657V1.33143C11.2053 1.03452 11.0793 0.749765 10.8551 0.539814C10.6308 0.329863 10.3267 0.211914 10.0096 0.211914ZM6.42243 14.7657H5.22671V13.6462H6.42243V14.7657ZM1.63956 12.5266V1.33143H10.0096V12.5266H1.63956Z" fill="white"/>
</svg>
