<svg width="16" height="17" viewBox="0 0 16 17" fill="none" xmlns="http://www.w3.org/2000/svg">
<path d="M15.4388 9.82555C15.49 9.41646 15.5411 9.0585 15.5411 8.64941C15.5411 4.5585 12.2172 1.1835 8.07519 1.1835C7.6661 1.1835 7.30814 1.23464 6.89905 1.28578C6.23428 0.927823 5.51837 0.774414 4.80246 0.774414C2.24565 0.774414 0.200195 2.81987 0.200195 5.37669C0.200195 6.09259 0.353604 6.8085 0.711558 7.47328C0.660422 7.88237 0.609286 8.24032 0.609286 8.64941C0.609286 12.7403 3.93315 16.1153 8.07519 16.1153C8.48428 16.1153 8.84223 16.0642 9.25132 16.013C9.9161 16.3199 10.632 16.5244 11.3479 16.5244C13.9047 16.5244 15.9502 14.479 15.9502 11.9221C15.9502 11.2062 15.7456 10.4903 15.4388 9.82555ZM11.1945 11.3596C11.0411 11.6665 10.8365 11.9221 10.5297 12.1267C10.2229 12.3312 9.9161 12.4846 9.507 12.5869C9.09791 12.6892 8.63769 12.7403 8.12632 12.7403C7.05246 12.7403 6.18314 12.4846 5.56951 12.0244C5.21155 11.7176 4.90474 11.3596 4.75133 10.8994C4.54678 10.4903 4.90474 9.97896 5.4161 9.97896H5.56951C5.87633 9.97896 6.18314 10.1835 6.28542 10.4392C6.38769 10.6949 6.5411 10.8994 6.74564 11.0528C7.05246 11.3085 7.51269 11.4108 8.07519 11.4108C8.58655 11.4108 8.99564 11.3085 9.30246 11.1551C9.60928 11.0017 9.76269 10.6949 9.76269 10.388C9.76269 10.2346 9.71155 10.1324 9.66041 10.0301C9.60928 9.92782 9.45587 9.82555 9.3536 9.77441C9.20019 9.67214 9.04678 9.621 8.7911 9.56987C8.58655 9.51873 8.33087 9.41646 8.02405 9.36532L7.71723 9.26305C7.35928 9.16078 6.95019 9.0585 6.64337 8.95623C6.28542 8.85396 5.9786 8.70055 5.72292 8.54714C5.46724 8.39373 5.26269 8.18918 5.10928 7.88237C4.95587 7.62668 4.90474 7.26873 4.90474 6.85964C4.90474 6.45055 5.00701 6.09259 5.16042 5.78578C5.31383 5.47896 5.56951 5.22328 5.82519 5.06987C6.13201 4.86532 6.43883 4.71191 6.84792 4.66078C7.20587 4.5585 7.61496 4.50737 8.07519 4.50737C8.58655 4.50737 8.99564 4.5585 9.40473 4.66078C9.81382 4.76305 10.1206 4.91646 10.4275 5.17214C10.7343 5.37669 10.9388 5.63237 11.0922 5.99032C11.3479 6.45055 10.99 7.06418 10.4275 7.06418H10.274C9.96723 7.06418 9.71155 6.91078 9.55814 6.65509C9.45587 6.50168 9.3536 6.34828 9.20019 6.19487C8.94451 5.99032 8.53541 5.88805 8.07519 5.88805C7.61496 5.88805 7.25701 5.99032 7.00133 6.14373C6.74564 6.29714 6.64337 6.55282 6.64337 6.8085C6.64337 6.96191 6.69451 7.06418 6.74564 7.16646C6.79678 7.26873 6.89905 7.371 7.05246 7.42214C7.20587 7.47328 7.35928 7.57555 7.56382 7.62668C7.76837 7.67782 8.02405 7.72896 8.33087 7.83123C8.63769 7.88237 8.89337 7.98464 9.20019 8.03577C9.45587 8.08691 9.71155 8.18918 9.96723 8.24032C10.2229 8.34259 10.4275 8.44487 10.632 8.54714C10.8365 8.64941 10.99 8.80282 11.1434 8.95623C11.2968 9.10964 11.399 9.31418 11.4502 9.51873C11.5525 9.72327 11.5525 10.0301 11.5525 10.3369C11.4502 10.6949 11.3479 11.0528 11.1945 11.3596Z" fill="white"/>
</svg>
