<svg width="18" height="10" viewBox="0 0 18 10" fill="none" xmlns="http://www.w3.org/2000/svg">
<path d="M17.6878 8.92255C17.6878 8.85749 17.6183 8.85749 17.6183 8.79243C17.3404 8.27193 16.715 7.62131 15.8811 6.90563C15.4641 6.58032 15.2557 6.32007 15.1167 6.18994C14.9082 5.92969 14.9082 5.73451 14.9777 5.47426C15.0472 5.27908 15.3252 4.95376 15.8116 4.3682C16.0896 4.04289 16.2285 3.84771 16.437 3.65252C17.4794 2.35128 17.9658 1.50546 17.8268 1.11509L17.7573 1.05004C17.6878 0.984973 17.6183 0.919913 17.4794 0.919913C17.3404 0.854851 17.1319 0.854851 16.9234 0.919913H14.2828C14.2133 0.919913 14.2133 0.919913 14.0743 0.919913C14.0048 0.919913 13.9354 0.919913 13.9354 0.919913H13.8659H13.7964L13.7269 0.984969C13.6574 1.05003 13.6574 1.05003 13.6574 1.11509C13.3794 1.83078 13.032 2.41633 12.6845 3.06696C12.4761 3.39227 12.2676 3.71758 12.0591 3.97783C11.8507 4.23808 11.7117 4.43326 11.5727 4.56339C11.4337 4.69351 11.2947 4.75857 11.2252 4.8887C11.1557 4.95376 11.0168 5.01883 11.0168 4.95376C10.9473 4.95376 10.8778 4.95376 10.8778 4.8887C10.8083 4.82364 10.7388 4.75857 10.6693 4.69351C10.5998 4.62845 10.5998 4.49832 10.5303 4.3682C10.5303 4.23807 10.5303 4.10795 10.5303 4.04289C10.5303 3.97783 10.5303 3.78265 10.5303 3.65252C10.5303 3.45733 10.5303 3.32721 10.5303 3.26214C10.5303 3.06696 10.5303 2.80672 10.5303 2.54647C10.5303 2.28622 10.5303 2.09103 10.5303 1.9609C10.5303 1.83078 10.5303 1.63559 10.5303 1.50547C10.5303 1.31028 10.5303 1.18015 10.5303 1.11509C10.5303 1.05003 10.4609 0.919909 10.4609 0.854847C10.3914 0.789785 10.3219 0.724721 10.2524 0.659659C10.1829 0.594597 10.0439 0.594599 9.97442 0.529536C9.62697 0.464474 9.21003 0.399414 8.7236 0.399414C7.61176 0.399414 6.84736 0.464478 6.5694 0.594602C6.43042 0.659665 6.29144 0.724723 6.22195 0.854847C6.08297 0.984971 6.08297 1.05004 6.15246 1.05004C6.49991 1.1151 6.77787 1.24522 6.91685 1.4404L6.98635 1.57053C7.05584 1.6356 7.05582 1.76572 7.12531 1.9609C7.1948 2.15609 7.19481 2.35127 7.19481 2.61152C7.19481 3.0019 7.19481 3.39227 7.19481 3.65252C7.19481 3.97783 7.12531 4.17301 7.12531 4.3682C7.12531 4.56339 7.05584 4.69351 6.98635 4.75858C6.91686 4.8887 6.91685 4.95376 6.84736 4.95376C6.84736 4.95376 6.84735 5.01882 6.77786 5.01882C6.70837 5.01882 6.63889 5.08389 6.49991 5.08389C6.43042 5.08389 6.29144 5.01883 6.22195 4.95376C6.08297 4.8887 5.94399 4.75858 5.8745 4.62845C5.73552 4.49833 5.59653 4.30314 5.45755 4.04289C5.31857 3.78264 5.11009 3.5224 4.97111 3.13202L4.83215 2.87178C4.76266 2.74165 4.62368 2.4814 4.48469 2.15609C4.34571 1.83078 4.20673 1.57053 4.06775 1.24522C3.99826 1.1151 3.92878 1.05003 3.85929 0.984969H3.78979C3.78979 0.984969 3.72029 0.919913 3.6508 0.919913C3.58131 0.919913 3.51183 0.854847 3.44234 0.854847H0.94069C0.662729 0.854847 0.52375 0.919907 0.45426 0.984969L0.384766 1.05004C0.384766 1.05004 0.384766 1.1151 0.384766 1.18016C0.384766 1.24522 0.38477 1.31028 0.45426 1.4404C0.801711 2.22115 1.21865 3.0019 1.63559 3.78264C2.05253 4.49833 2.46948 5.14895 2.74744 5.60439C3.09489 6.05982 3.37285 6.51526 3.7203 6.90563C4.06775 7.296 4.27622 7.55625 4.34571 7.68637C4.48469 7.8165 4.55417 7.88156 4.62366 7.94662L4.83215 8.14181C4.97113 8.27193 5.17959 8.46712 5.45755 8.6623C5.73551 8.85749 6.08296 9.05267 6.43041 9.24786C6.77786 9.44305 7.19481 9.57318 7.61175 9.7033C8.09819 9.83343 8.51512 9.89849 8.93207 9.83343H9.97442C10.1829 9.83343 10.3219 9.76836 10.4609 9.63824L10.5303 9.57317C10.5303 9.50811 10.5998 9.50811 10.5998 9.44305C10.5998 9.37799 10.5998 9.31293 10.5998 9.1828C10.5998 8.92255 10.5998 8.72737 10.6693 8.53218C10.7388 8.337 10.7388 8.20687 10.8083 8.07675C10.8778 7.94663 10.9473 7.88156 11.0168 7.81649C11.0863 7.75143 11.1558 7.68637 11.1558 7.68637H11.2252C11.3642 7.62131 11.5727 7.68637 11.7117 7.81649C11.9201 7.94662 12.1286 8.14181 12.2676 8.33699C12.4066 8.53218 12.6151 8.72737 12.893 8.98762C13.171 9.24786 13.3794 9.44305 13.5184 9.50811L13.7269 9.63824C13.8659 9.7033 14.0049 9.76836 14.2133 9.83343C14.4218 9.89849 14.5608 9.89848 14.6997 9.89848L17.0624 9.83343C17.2709 9.83343 17.4794 9.76836 17.6183 9.7033C17.7573 9.63824 17.8268 9.57317 17.8268 9.44305C17.8268 9.37799 17.8268 9.24787 17.8268 9.1828C17.6878 9.05268 17.6878 8.98761 17.6878 8.92255Z" fill="white"/>
</svg>
